<svg height="485pt" viewBox="-2 0 485 485.6" width="485pt" xmlns="http://www.w3.org/2000/svg"><path fill="#fe7d65" d="m464.300781 202.398438-152-152-64 64-114.402343-114.398438-11.199219 11.199219 125.601562 125.601562 64-64 140.800781 140.800781h-28.800781v16h56v-56h-16zm0 0"/><path fill="#fe7d65" d="m72.300781 29.601562c-40 0-72 32-72 72 0 18.398438 7.199219 36 20 49.597657-12.800781 5.601562-20 13.601562-20 22.402343v280c0 20.796876 36 32 72 32s72-11.203124 72-32v-280c0-8.800781-7.199219-16.800781-20-22.402343 27.199219-28.800781 26.398438-74.398438-2.402343-101.597657-13.597657-12.800781-31.199219-20-49.597657-20zm0 16c31.199219 0 56 24.796876 56 56 0 31.199219-24.800781 56-56 56s-56-24.800781-56-56c0-31.203124 24.800781-56 56-56zm0 424c-36 0-56-11.203124-56-16v-19.203124c17.597657 8 36.800781 12 56 11.203124 19.199219.796876 38.398438-3.203124 56-11.203124v19.203124c0 4.796876-20 16-56 16zm0-40c-36 0-56-11.203124-56-16v-19.203124c17.597657 8 36.800781 12 56 11.203124 19.199219.796876 38.398438-3.203124 56-11.203124v19.203124c0 4.796876-20 16-56 16zm0-40c-36 0-56-11.203124-56-16v-19.203124c17.597657 8 36.800781 12 56 11.203124 19.199219.796876 38.398438-3.203124 56-11.203124v19.203124c0 4.796876-20 16-56 16zm0-40c-36 0-56-11.203124-56-16v-19.203124c17.597657 8 36.800781 12 56 11.203124 19.199219.796876 38.398438-3.203124 56-11.203124v19.203124c0 4.796876-20 16-56 16zm0-40c-36 0-56-11.203124-56-16v-19.203124c17.597657 8 36.800781 12 56 11.203124 19.199219.796876 38.398438-3.203124 56-11.203124v19.203124c0 4.796876-20 16-56 16zm0-40c-36 0-56-11.203124-56-16v-19.203124c17.597657 8 36.800781 12 56 11.203124 19.199219.796876 38.398438-3.203124 56-11.203124v19.203124c0 4.796876-20 16-56 16zm0-40c-36 0-56-11.203124-56-16v-19.203124c17.597657 8 36.800781 12 56 11.203124 19.199219.796876 38.398438-3.203124 56-11.203124v19.203124c0 4.796876-20 16-56 16zm56-56c0 4.796876-20 16-56 16s-56-11.203124-56-16c0-1.601562 4.800781-7.203124 17.597657-11.203124 23.203124 14.402343 52.800781 14.402343 76 0 13.601562 4 18.402343 9.601562 18.402343 11.203124zm0 0"/><path fill="#fe7d65" d="m240.300781 221.601562c-36 0-72 11.199219-72 32v200c0 20.796876 36 32 72 32s72-11.203124 72-32v-200c0-20.800781-36-32-72-32zm0 248c-36 0-56-11.203124-56-16v-19.203124c17.597657 8 36.800781 12 56 11.203124 19.199219.796876 38.398438-3.203124 56-11.203124v19.203124c0 4.796876-20 16-56 16zm0-40c-36 0-56-11.203124-56-16v-19.203124c17.597657 8 36.800781 12 56 11.203124 19.199219.796876 38.398438-3.203124 56-11.203124v19.203124c0 4.796876-20 16-56 16zm0-40c-36 0-56-11.203124-56-16v-19.203124c17.597657 8 36.800781 12 56 11.203124 19.199219.796876 38.398438-3.203124 56-11.203124v19.203124c0 4.796876-20 16-56 16zm0-40c-36 0-56-11.203124-56-16v-19.203124c17.597657 8 36.800781 12 56 11.203124 19.199219.796876 38.398438-3.203124 56-11.203124v19.203124c0 4.796876-20 16-56 16zm0-40c-36 0-56-11.203124-56-16v-19.203124c17.597657 8 36.800781 12 56 11.203124 19.199219.796876 38.398438-3.203124 56-11.203124v19.203124c0 4.796876-20 16-56 16zm0-40c-36 0-56-11.203124-56-16 0-4.800781 20-16 56-16s56 11.199219 56 16c0 4.796876-20 16-56 16zm0 0"/><path fill="#fe7d65" d="m408.300781 261.601562c-36 0-72 11.199219-72 32v160c0 20.796876 36 32 72 32s72-11.203124 72-32v-160c0-20.800781-36-32-72-32zm0 208c-36 0-56-11.203124-56-16v-19.203124c17.597657 8 36.800781 12 56 11.203124 19.199219.796876 38.398438-3.203124 56-11.203124v19.203124c0 4.796876-20 16-56 16zm0-40c-36 0-56-11.203124-56-16v-19.203124c17.597657 8 36.800781 12 56 11.203124 19.199219.796876 38.398438-3.203124 56-11.203124v19.203124c0 4.796876-20 16-56 16zm0-40c-36 0-56-11.203124-56-16v-19.203124c17.597657 8 36.800781 12 56 11.203124 19.199219.796876 38.398438-3.203124 56-11.203124v19.203124c0 4.796876-20 16-56 16zm0-40c-36 0-56-11.203124-56-16v-19.203124c17.597657 8 36.800781 12 56 11.203124 19.199219.796876 38.398438-3.203124 56-11.203124v19.203124c0 4.796876-20 16-56 16zm0-40c-36 0-56-11.203124-56-16 0-4.800781 20-16 56-16s56 11.199219 56 16c0 4.796876-20 16-56 16zm0 0"/><path fill="#fe7d65" d="m405.898438 208-93.597657-93.601562-64 64-42.402343-42.398438-11.199219 11.199219 53.601562 53.601562 64-64 82.398438 82.398438zm0 0"/><path d="m154.761719 107.378906 11.3125-11.3125 23.757812 23.757813-11.3125 11.3125zm0 0"/></svg>